<svg xmlns="http://www.w3.org/2000/svg" viewBox="0 0 175.216 175.552">
  <defs>
    <linearGradient id="whatsappGradient" x1="85.915" x2="86.535" y1="32.567" y2="137.092" gradientUnits="userSpaceOnUse">
      <stop offset="0" stop-color="#57d163"/>
      <stop offset="1" stop-color="#23b33a"/>
    </linearGradient>
  </defs>
  <path fill="url(#whatsappGradient)" d="M87.184 25.227c-33.733 0-61.166 27.423-61.178 61.13a60.98 60.98 0 0 0 9.349 32.535l1.455 2.312-6.179 22.559 23.146-6.069 2.235 1.324c9.387 5.571 20.15 8.518 31.126 8.524h.023c33.707 0 61.14-27.426 61.153-61.135a60.75 60.75 0 0 0-17.895-43.251 60.75 60.75 0 0 0-43.235-17.929z"/>
  <path fill="#fff" d="M87.184 113.394c-5.316 0-10.532-1.391-15.117-4.016l-1.086-.622-11.258 2.953 3.004-10.97-.683-1.126a38.73 38.73 0 0 1-5.943-20.633c.012-21.434 17.456-38.878 38.9-38.878a38.66 38.66 0 0 1 27.517 11.387 38.66 38.66 0 0 1 11.375 27.524c-.012 21.435-17.456 38.881-38.89 38.881z"/>
  <path fill="#fff" fill-rule="evenodd" d="M68.772 55.603c-.853-1.896-1.752-1.935-2.563-1.968-.663-.028-1.422-.026-2.18-.026s-1.99.282-3.033 1.41c-1.043 1.127-3.976 3.885-3.976 9.478s4.069 10.995 4.636 11.751c.567.757 7.982 12.18 19.34 17.083 9.452 4.087 11.37 3.274 13.416 3.07 2.046-.203 6.596-2.696 7.527-5.302.93-2.605.93-4.84.651-5.302-.279-.462-1.043-.745-2.18-1.315-1.137-.571-6.708-3.316-7.751-3.691s-1.8-.57-2.557.569c-.757 1.14-2.932 3.691-3.597 4.447-.665.755-1.33.849-2.467.278-1.137-.57-4.794-1.768-9.134-5.641-3.376-3.013-5.655-6.733-6.32-7.872-.664-1.139-.071-1.754.499-2.32.511-.509 1.137-1.327 1.705-1.991.568-.664.757-1.14 1.137-1.895.379-.756.19-1.421-.095-1.991-.284-.57-2.557-6.165-3.505-8.436z" clip-rule="evenodd"/>
</svg>
